<svg xmlns="http://www.w3.org/2000/svg" width="1920" height="1080" viewBox="0 0 1920 1080"><rect width="1920" height="1080" fill="#FBF7F1"/><line x1="90" y1="950" x2="1830" y2="950" stroke="#272724" stroke-width="9" stroke-linecap="round"/><path d="M 940.0 547.6 L 1220.0 547.6 L 1220.0 732.4000000000001 L 940.0 732.4000000000001 Z" fill="#FFFFFF" stroke="#272724" stroke-width="9" stroke-linejoin="round" stroke-linecap="round"/><path d="M 940.0 547.6 L 1080 654.784 L 1220.0 547.6 Z" fill="#FFFFFF" stroke="#272724" stroke-width="9" stroke-linejoin="round" stroke-linecap="round"/><path d="M 1420.0 547.6 L 1700.0 547.6 L 1700.0 732.4000000000001 L 1420.0 732.4000000000001 Z" fill="#FFFFFF" stroke="#272724" stroke-width="9" stroke-linejoin="round" stroke-linecap="round"/><path d="M 1420.0 547.6 L 1560 654.784 L 1700.0 547.6 Z" fill="#FFFFFF" stroke="#272724" stroke-width="9" stroke-linejoin="round" stroke-linecap="round"/><circle cx="1560" cy="640" r="52" fill="#FFFFFF" stroke="#272724" stroke-width="9"/><circle cx="1544.4" cy="633.76" r="3.9" fill="#272724"/><circle cx="1575.6" cy="633.76" r="3.9" fill="#272724"/><line x1="1547.52" y1="655.6" x2="1572.48" y2="655.6" stroke="#272724" stroke-width="8" stroke-linecap="round"/><path d="M 322.0 950 L 310.0 617.0 Q 310.0 572.0 355.0 572.0 L 505.0 572.0 Q 550.0 572.0 550.0 617.0 L 538.0 950 Z" fill="#FFFFFF" stroke="#272724" stroke-width="9" stroke-linejoin="round" stroke-linecap="round"/><circle cx="430" cy="410.0" r="150.0" fill="#FFFFFF" stroke="#272724" stroke-width="9"/><circle cx="385.0" cy="392.0" r="11.25" fill="#272724"/><circle cx="475.0" cy="392.0" r="11.25" fill="#272724"/><line x1="394.0" y1="455.0" x2="466.0" y2="455.0" stroke="#272724" stroke-width="8" stroke-linecap="round"/><path d="M 535.0 617.0 Q 977.5 450 1420.0 520" fill="none" stroke="#272724" stroke-width="68" stroke-linecap="round" stroke-linejoin="round"/><path d="M 535.0 617.0 Q 977.5 450 1420.0 520" fill="none" stroke="#FFFFFF" stroke-width="50" stroke-linecap="round" stroke-linejoin="round"/></svg>