<svg xmlns="http://www.w3.org/2000/svg" width="1920" height="1080" viewBox="0 0 1920 1080"><rect width="1920" height="1080" fill="#FBF7F1"/><line x1="90" y1="950" x2="1830" y2="950" stroke="#272724" stroke-width="9" stroke-linecap="round"/><path d="M 1177.4 675.0 L 1522.6 675.0 Q 1560.0 675.0 1560.0 712.4 L 1560.0 807.6 Q 1560.0 845.0 1522.6 845.0 L 1177.4 845.0 Q 1140.0 845.0 1140.0 807.6 L 1140.0 712.4 Q 1140.0 675.0 1177.4 675.0 Z" fill="#FFFFFF" stroke="#272724" stroke-width="9" stroke-linejoin="round" stroke-linecap="round"/><rect x="1186.6666666666667" y="726.0" width="46.666666666666664" height="68.0" rx="10.266666666666666" fill="#272724"/><rect x="1280.0" y="726.0" width="46.666666666666664" height="68.0" rx="10.266666666666666" fill="#272724"/><rect x="1373.3333333333333" y="726.0" width="46.666666666666664" height="68.0" rx="10.266666666666666" fill="#272724"/><rect x="1466.6666666666665" y="726.0" width="46.666666666666664" height="68.0" rx="10.266666666666666" fill="#272724"/><path d="M 362.0 950 L 350.0 617.0 Q 350.0 572.0 395.0 572.0 L 545.0 572.0 Q 590.0 572.0 590.0 617.0 L 578.0 950 Z" fill="#FFFFFF" stroke="#272724" stroke-width="9" stroke-linejoin="round" stroke-linecap="round"/><circle cx="470" cy="410.0" r="150.0" fill="#FFFFFF" stroke="#272724" stroke-width="9"/><circle cx="425.0" cy="392.0" r="11.25" fill="#272724"/><circle cx="515.0" cy="392.0" r="11.25" fill="#272724"/><line x1="434.0" y1="455.0" x2="506.0" y2="455.0" stroke="#272724" stroke-width="8" stroke-linecap="round"/><path d="M 1180 720 Q 1027.6 484.4 760 400" fill="none" stroke="#272724" stroke-width="9" stroke-linecap="round"/><path d="M 760 400 L 790.4 396.5 M 760 400 L 782.9 420.3" fill="none" stroke="#272724" stroke-width="9" stroke-linecap="round"/><g opacity="1.0" transform="translate(860 250) scale(0.9017) translate(-860 -250)"><ellipse cx="722.5" cy="265.0" rx="130.0" ry="97.5" fill="#FFFFFF" stroke="#272724" stroke-width="9" stroke-dasharray="26 20"/><ellipse cx="815.0" cy="205.0" rx="155.0" ry="116.25" fill="#FFFFFF" stroke="#272724" stroke-width="9" stroke-dasharray="26 20"/><ellipse cx="922.5" cy="217.0" rx="145.0" ry="108.75" fill="#FFFFFF" stroke="#272724" stroke-width="9" stroke-dasharray="26 20"/><ellipse cx="1005.0" cy="271.0" rx="115.0" ry="86.25" fill="#FFFFFF" stroke="#272724" stroke-width="9" stroke-dasharray="26 20"/></g></svg>