<svg xmlns="http://www.w3.org/2000/svg" width="1920" height="1080" viewBox="0 0 1920 1080"><rect width="1920" height="1080" fill="#FBF7F1"/><line x1="90" y1="950" x2="1830" y2="950" stroke="#272724" stroke-width="9" stroke-linecap="round"/><path d="M 1080 380 L 1080 820 L 1720 820" fill="none" stroke="#272724" stroke-width="6" stroke-linecap="round"/><path d="M 1080.0 459.2 L 1195.2 402.0 L 1297.6 529.6 L 1400.0 476.8" fill="none" stroke="#51867E" stroke-width="10" stroke-linecap="round" stroke-linejoin="round"/><path d="M 382.0 950 L 370.0 617.0 Q 370.0 572.0 415.0 572.0 L 565.0 572.0 Q 610.0 572.0 610.0 617.0 L 598.0 950 Z" fill="#FFFFFF" stroke="#272724" stroke-width="9" stroke-linejoin="round" stroke-linecap="round"/><circle cx="490" cy="410.0" r="150.0" fill="#FFFFFF" stroke="#272724" stroke-width="9"/><circle cx="445.0" cy="392.0" r="11.25" fill="#272724"/><circle cx="535.0" cy="392.0" r="11.25" fill="#272724"/><line x1="454.0" y1="455.0" x2="526.0" y2="455.0" stroke="#272724" stroke-width="8" stroke-linecap="round"/><path d="M 730.0 300 Q 830 208.46858710562412 930.0 300 Q 830 391.5314128943759 730.0 300 Z" fill="#FFFFFF" stroke="#272724" stroke-width="9" stroke-linejoin="round"/><circle cx="830" cy="300" r="26.0" fill="#272724"/></svg>