<svg xmlns="http://www.w3.org/2000/svg" width="1920" height="1080" viewBox="0 0 1920 1080"><rect width="1920" height="1080" fill="#FBF7F1"/><line x1="90" y1="950" x2="1830" y2="950" stroke="#272724" stroke-width="9" stroke-linecap="round"/><path d="M 1090.0 320.0 L 1510.0 320.0 L 1510.0 840.0 L 1090.0 840.0 Z" fill="#FFFFFF" stroke="#272724" stroke-width="9" stroke-linejoin="round" stroke-linecap="round"/><line x1="1157.2" y1="472.09999999999997" x2="1375.6000000000001" y2="472.09999999999997" stroke="#272724" stroke-width="6" stroke-linecap="round"/><line x1="1157.2" y1="547.5" x2="1434.4" y2="547.5" stroke="#272724" stroke-width="6" stroke-linecap="round"/><line x1="1157.2" y1="622.9" x2="1375.6000000000001" y2="622.9" stroke="#272724" stroke-width="6" stroke-linecap="round"/><line x1="1157.2" y1="698.3" x2="1434.4" y2="698.3" stroke="#272724" stroke-width="6" stroke-linecap="round"/><path d="M 362.0 950 L 350.0 617.0 Q 350.0 572.0 395.0 572.0 L 545.0 572.0 Q 590.0 572.0 590.0 617.0 L 578.0 950 Z" fill="#FFFFFF" stroke="#272724" stroke-width="9" stroke-linejoin="round" stroke-linecap="round"/><path d="M 575.0 617.0 Q 680.0 609.0 725.0 577.0" fill="none" stroke="#272724" stroke-width="57.0" stroke-linecap="round" stroke-linejoin="round"/><path d="M 575.0 617.0 Q 680.0 609.0 725.0 577.0" fill="none" stroke="#FFFFFF" stroke-width="39.0" stroke-linecap="round" stroke-linejoin="round"/><circle cx="470" cy="410.0" r="150.0" fill="#FFFFFF" stroke="#272724" stroke-width="9"/><circle cx="425.0" cy="392.0" r="11.25" fill="#272724"/><circle cx="515.0" cy="392.0" r="11.25" fill="#272724"/><line x1="434.0" y1="455.0" x2="506.0" y2="455.0" stroke="#272724" stroke-width="8" stroke-linecap="round"/></svg>